<?xml version="1.0" encoding="UTF-8" standalone="no"?>
<svg
   viewBox="0 0 448 512"
   version="1.1"
   id="svg65"
   sodipodi:docname="swift-red.svg"
   inkscape:version="1.2.1 (9c6d41e, 2022-07-14)"
   xmlns:inkscape="http://www.inkscape.org/namespaces/inkscape"
   xmlns:sodipodi="http://sodipodi.sourceforge.net/DTD/sodipodi-0.dtd"
   xmlns="http://www.w3.org/2000/svg"
   xmlns:svg="http://www.w3.org/2000/svg">
  <defs
     id="defs69" />
  <sodipodi:namedview
     id="namedview67"
     pagecolor="#505050"
     bordercolor="#eeeeee"
     borderopacity="1"
     inkscape:showpageshadow="0"
     inkscape:pageopacity="0"
     inkscape:pagecheckerboard="0"
     inkscape:deskcolor="#505050"
     showgrid="false"
     inkscape:zoom="2.0058594"
     inkscape:cx="224.09348"
     inkscape:cy="256"
     inkscape:window-width="1390"
     inkscape:window-height="1205"
     inkscape:window-x="0"
     inkscape:window-y="25"
     inkscape:window-maximized="0"
     inkscape:current-layer="svg65" />
  <!--! Font Awesome Pro 6.2.1 by @fontawesome - https://fontawesome.com License - https://fontawesome.com/license (Commercial License) Copyright 2022 Fonticons, Inc. -->
  <path
     d="M448 156.09c0-4.51-.08-9-.2-13.52a196.31 196.31 0 0 0-2.58-29.42 99.62 99.62 0 0 0-9.22-28A94.08 94.08 0 0 0 394.84 44a99.17 99.17 0 0 0-28-9.22 195 195 0 0 0-29.43-2.59c-4.51-.12-9-.17-13.52-.2H124.14c-4.51 0-9 .08-13.52.2-2.45.07-4.91.15-7.37.27a171.68 171.68 0 0 0-22.06 2.32 103.06 103.06 0 0 0-21.21 6.1q-3.46 1.45-6.81 3.12a94.66 94.66 0 0 0-18.39 12.32c-1.88 1.61-3.69 3.28-5.43 5A93.86 93.86 0 0 0 12 85.17a99.45 99.45 0 0 0-9.22 28 196.31 196.31 0 0 0-2.54 29.4c-.13 4.51-.18 9-.21 13.52v199.83c0 4.51.08 9 .21 13.51a196.08 196.08 0 0 0 2.58 29.42 99.3 99.3 0 0 0 9.22 28A94.31 94.31 0 0 0 53.17 468a99.47 99.47 0 0 0 28 9.21 195 195 0 0 0 29.43 2.59c4.5.12 9 .17 13.52.2H323.91c4.51 0 9-.08 13.52-.2a196.59 196.59 0 0 0 29.44-2.59 99.57 99.57 0 0 0 28-9.21A94.22 94.22 0 0 0 436 426.84a99.3 99.3 0 0 0 9.22-28 194.79 194.79 0 0 0 2.59-29.42c.12-4.5.17-9 .2-13.51V172.14c-.01-5.35-.01-10.7-.01-16.05zm-69.88 241c-20-38.93-57.23-29.27-76.31-19.47-1.72 1-3.48 2-5.25 3l-.42.25c-39.5 21-92.53 22.54-145.85-.38A234.64 234.64 0 0 1 45 290.12a230.63 230.63 0 0 0 39.17 23.37c56.36 26.4 113 24.49 153 0-57-43.85-104.6-101-141.09-147.22a197.09 197.09 0 0 1-18.78-25.9c43.7 40 112.7 90.22 137.48 104.12-52.57-55.49-98.89-123.94-96.72-121.74 82.79 83.42 159.18 130.59 159.18 130.59 2.88 1.58 5 2.85 6.73 4a127.44 127.44 0 0 0 4.16-12.47c13.22-48.33-1.66-103.58-35.31-149.2C329.61 141.75 375 229.34 356.4 303.42c-.44 1.73-.95 3.4-1.44 5.09 38.52 47.4 28.04 98.17 23.13 88.59z"
     id="path63" />
  <path
     style="fill:#ff0000;stroke-width:0.498539"
     d="m 378.31336,396.66091 c -6.65285,-12.05965 -15.96177,-21.08553 -25.46532,-24.69107 -6.52784,-2.47658 -9.78838,-3.01557 -18.07881,-2.98852 -13.08456,0.0427 -20.01553,2.05003 -37.63973,10.90118 -15.21524,7.64134 -23.27892,10.62387 -36.39338,13.46089 -32.5808,7.04813 -68.79434,3.3746 -103.92451,-10.5422 -23.09228,-9.14799 -44.22013,-21.79314 -64.332545,-38.5034 -7.054034,-5.8608 -21.777728,-20.50945 -27.366188,-27.22671 -7.382532,-8.87371 -18.386483,-23.95976 -17.860327,-24.48591 0.12645,-0.12645 3.231263,1.77137 6.899585,4.21738 29.114367,19.41324 59.675665,30.91847 93.166265,35.07377 3.15471,0.39141 10.48408,0.64212 18.44596,0.63097 11.2158,-0.0157 14.37847,-0.19366 20.93866,-1.17803 12.92336,-1.93918 24.627,-5.16779 35.3963,-9.76455 4.05932,-1.73268 12.74476,-6.18083 14.58975,-7.47197 0.78267,-0.54772 0.1215,-1.21862 -5.98247,-6.07057 C 197.41408,281.55852 162.06477,245.94565 125.04093,201.56864 115.36192,189.96731 93.956111,163.42032 88.646763,156.43343 84.77954,151.34431 79.51704,143.67684 79.51704,143.13141 c 0,-0.18493 2.972541,2.28645 6.605647,5.49195 34.640553,30.56349 92.674993,74.34788 122.954073,92.76337 2.84577,1.73078 5.39489,3.14686 5.66471,3.14686 0.26983,0 -1.95084,-2.63602 -4.9348,-5.85784 -15.91377,-17.1822 -31.21989,-35.2122 -48.40323,-57.01705 -14.99091,-19.02278 -40.55271,-53.92121 -39.93251,-54.51816 0.095,-0.0914 3.20132,2.73233 6.90297,6.275 43.50075,41.63236 78.17642,70.71302 120.43167,100.9997 13.55684,9.71693 33.99143,23.08038 35.29315,23.08038 0.47061,0 4.63929,-13.44489 5.72319,-18.45848 2.33667,-10.80827 3.11355,-18.35539 3.12914,-30.39839 0.007,-5.34683 -0.23315,-12.18929 -0.5335,-15.20545 -3.0155,-30.28277 -14.46183,-60.98115 -33.20782,-89.06134 -2.59354,-3.88493 -4.65509,-7.12394 -4.58123,-7.197797 0.0739,-0.07386 3.08678,1.836695 6.69539,4.245667 72.96746,48.71043 112.25819,132.15504 94.84022,201.41913 -1.28993,5.1295 -1.36084,5.81315 -0.69819,6.73028 0.40567,0.56146 2.29601,3.1467 4.20076,5.74498 10.73721,14.64673 18.74882,33.21961 21.70558,50.31891 2.36938,13.70239 1.83258,27.78786 -1.2018,31.53517 l -0.9381,1.1585 z"
     id="path313" />
  <path
     style="fill:#ffffff;stroke-width:0.498539"
     d="M 104.44401,479.32808 C 82.418918,478.23019 69.092102,475.28772 54.839338,468.37574 27.647122,455.18867 8.677894,429.82038 3.2225817,399.34663 0.46949363,383.96769 0.5735081,388.91827 0.37314231,263.72736 0.15862842,129.69653 0.25305458,125.7212 4.0604847,108.49057 10.932744,77.389967 32.25248,52.219049 61.553597,40.611939 c 9.613236,-3.808111 20.06692,-6.055871 35.163053,-7.56079 5.11043,-0.509454 31.99485,-0.646086 127.12756,-0.646086 125.33125,0 124.59918,-0.01078 139.0925,2.048462 32.56191,4.626469 58.99554,23.36101 73.23984,51.907928 7.29352,14.616887 10.31243,29.245277 11.26714,54.595947 0.61765,16.40031 0.61432,213.65372 -0.004,230.20521 -0.94152,25.20781 -3.97148,39.86253 -11.26326,54.47594 -4.78362,9.58682 -9.19839,15.82055 -16.62416,23.47358 -9.96209,10.26698 -19.7147,16.88453 -32.46,22.02544 -9.53954,3.84784 -18.92435,5.92719 -35.12355,7.78216 -5.84053,0.66881 -234.7248,1.0464 -247.52483,0.40835 z m 276.40832,-81.87365 c 3.44465,-5.25721 3.18989,-23.88767 -0.53594,-39.19324 -3.82522,-15.71382 -11.97378,-32.64475 -22.1273,-45.97567 l -2.8855,-3.78848 1.20476,-4.63848 c 4.72684,-18.1989 5.48994,-39.65743 2.14514,-60.32205 -8.30427,-51.30482 -41.34648,-102.32829 -88.50794,-136.67315 -6.76416,-4.92593 -17.0558,-11.640219 -17.36625,-11.329774 -0.11481,0.114809 1.54971,2.723432 3.69892,5.796944 18.51359,26.47555 30.98304,57.6279 34.91612,87.23074 2.84479,21.41175 0.38898,46.90523 -6.24164,64.79368 l -1.31444,3.54616 -3.59609,-2.12607 c -5.36747,-3.17333 -11.60674,-7.25071 -20.50312,-13.39882 -44.52911,-30.77317 -90.88196,-69.18618 -131.46875,-108.9493 -5.70115,-5.58545 -10.36572,-9.93689 -10.36572,-9.66987 0,1.74606 25.79271,37.30515 42.0437,57.9635 16.9768,21.581 36.45539,44.61087 48.38955,57.21181 1.89097,1.99662 3.31781,3.75053 3.17075,3.89759 -0.75198,0.75197 -26.61856,-16.66727 -47.73838,-32.14828 -28.47447,-20.87205 -54.93805,-41.92916 -76.675964,-61.01117 -5.292325,-4.64572 -9.711902,-8.35728 -9.821277,-8.2479 -0.289322,0.28932 5.283332,8.84765 9.178386,14.09592 4.051256,5.45875 28.189745,35.49661 36.880785,45.89433 21.47569,25.69297 36.14759,41.85406 56.37516,62.09725 20.34866,20.36437 32.39429,31.31629 49.76229,45.24403 3.91655,3.14076 7.05735,5.76389 6.97955,5.82918 -0.82057,0.68871 -8.32468,4.60712 -12.40898,6.4796 -37.86856,17.36108 -85.45831,16.17106 -131.735374,-3.29417 -14.26963,-6.00215 -29.821193,-14.62929 -42.361664,-23.49991 -2.692927,-1.90487 -4.991735,-3.36788 -5.108466,-3.25116 -0.290736,0.29074 7.99993,12.4297 12.488724,18.28563 37.408695,48.80219 93.87593,81.61123 151.56465,88.06328 8.92319,0.998 25.75036,1.1204 34.39922,0.25022 17.89618,-1.80056 36.16563,-6.96586 50.16717,-14.18369 2.84389,-1.46603 7.41169,-3.82254 10.15066,-5.23668 5.37835,-2.77686 12.94642,-5.41536 19.69775,-6.86735 6.25049,-1.34427 18.23902,-1.20945 23.68063,0.2663 12.79742,3.47063 22.49474,11.65225 30.36488,25.61884 1.47389,2.61561 2.39028,2.93996 3.504,1.24021 z"
     id="path384" />
</svg>
